<svg xmlns="http://www.w3.org/2000/svg" width="754" height="738" fill="none"><path fill="#000" d="M0 621V433c4-21 15-40 30-56 4-4 5-9 3-14-9-24-5-46 9-66 25-33 49-65 40-110-4-17 17-27 19-41 4-25 15-43 30-62C181 19 245-8 324 2c76 9 131 49 165 118 3 7 6 15 1 23v4l1-1 25-27 2-4h-1c-3 6-8 7-13 5-7-2-10-8-10-14-1-13 5-21 18-22 19-2 35 6 34 26 0 20 8 16 21 16 44-2 79 14 102 52 24 39 21 78 0 118-4 7-13 13-7 23 15 24 32 48 54 68 28 26 39 59 37 97-3 67-49 111-114 106l-3 3c0 50-37 71-73 91-39 22-78 38-116-1-6-6-15-5-18 6-3 14-12 22-23 28-76 39-189 21-249-39-5-5-11-8-17-4-22 14-33 1-41-17-10-24-28-32-52-32-8 1-12 3-10 12 2 7 0 13-7 17-8 3-15 1-20-5a35 35 0 0 1-7-27l-1-4-2 3Zm100-245-9-3-2 2 11 1 9 10 2 8c2 4 4 0 3-1-1-4-2-9-5-12-2-3-6-4-9-5Zm8-77 2 18 3-19c-1-8-2-16-9-21l-3 1 6 16-6-5 4 24 2 1 1-15Zm373 39c-20 8-28 50-13 65 5 4 13 4 19 6l-6-10c-6-11-7-21-5-32l1-12-4 12-4 7-1-8c0-11 7-20 13-28l8-3c3-3 6-6 2-10l-10 13Zm111 281c-13 10-26 19-42 24-27 9-54 13-80-2-8-5-16-14-15-24 2-15 15-19 26-24l6-3-1-1c-19-3-37-3-48 16-10 17-3 33 11 44 32 23 67 22 101 4l6-3-6 2c-30 7-60 12-88-8l-3-3 3 4 5 5v3c-15-8-25-21-25-38s13-22 26-24h8l-6 4c-23 10-25 30-5 45 32 25 102 13 127-21 9-8 10-19 12-29v-1 1l-12 29ZM438 288c-2-18-2-34-5-50-1-8 3-22-5-24-12-4-6-25-23-20-4-34-11 0-13 1-8 3-14 11-22 15-6 3-14 10-20 3-5-6 6-10 8-15l3-5-5 2a94 94 0 0 1-55 17c-3 0-8-2-8-3-1-3 0-7 2-10l20-26v-4a3 3 0 0 0-2 0c-13 12-29 18-45 25-5 2-11 11-16 4-5-6 5-10 7-15l3-5-5 3-41 29c-3 3-9 3-13 4l-3-14v-3l-1 1c4 15-11 27-4 43 12 24 14 51 10 78-2 14-15 31-10 42 13 32 36 59 68 75 30 16 64 33 95 9 50-40 74-95 80-157Zm-89 201c2-25 1-27-3-26-47 10-84-13-119-40l-4-3-1 5c1 39-13 70-48 88-14 7-14 15-9 26 24 58 72 83 129 97 30 8 63 0 92 13l3 1v-3c-14-20-10-39-2-61 10-26 8-54-20-66-19-9-19-20-18-31Zm186-113c-1 21 7 39 14 57l2 3-1-3c-5-19-12-38-11-58l1-4 1 2c2 31 15 60 21 90 7 34-3 62-26 75-27 15-62 9-86-15-19-18-27-42-36-66l-5-6v7c10 46 30 83 80 97l2 2h-2c-39-4-58-33-76-61-10-15-11-37-16-56l-1-2v2c1 22 7 42 15 62 26 62 112 82 151 34 25-31 14-64-1-95-21-42-22-83 3-123l17-27 4-8-5 7c-18 27-44 50-45 86Zm28-240-43 8c-5 1-8 6-10 12l9-2c36-14 71-17 104 6 42 28 49 77 23 137-12 27-26 55-10 85 13 26 40 39 55 64l4-1v-6l-16-22-4-5 6 3 13 13-13-16c-46-39-52-67-24-121 39-76-5-155-94-155ZM98 222a7864 7864 0 0 1-2-5c1 20-7 38-19 54-18 25-44 49-32 86 5 12 1 21-7 31-45 47-33 110 27 136 33 14 64 30 92 53a362 362 0 0 0 81 55l-1-2c-44-22-77-57-109-93l-4-2 2 4 21 24 1 3-2-1c-23-23-54-32-81-47-55-30-61-98-13-134 3-2 8-2 11-2l-1 4c-35 51-25 95 30 129 2 2 5 2 7 3l-6-5c-52-37-59-78-23-129 4-5 0-8-2-10-11-9-24-16-23-34 2-15 8-28 16-41 16-24 39-44 37-77Zm441-1c-12 0-21 5-28 15-14 21-15 47-21 72h2l67-47c4-3 8-4 12-3 5 1 6 7 6 11l1 4 3-3c9-23-13-49-42-49ZM295 16c75 0 127 29 167 88l6 2v-5c-36-59-90-90-157-92-71-2-130 22-171 83-1 2-6 5-2 9 5 3 8 5 13-2 37-54 89-81 144-83Zm360 309-1-1-3 3c-6 30 4 54 28 73 56 44 60 99 11 150l-1 1 2-1c51-32 52-117 2-150-25-18-41-41-38-75ZM540 471c0-22-18-35-36-47-3-2-2 1-3 3-3 5-7 15-8 14-9-3 0-8-1-13 0-3-2-5-3-8l-1 1c-5 11-17 25 9 26 5 0 10 4 15 8l8 8-6-13c-1-8-19-7-11-14 6-6 12 9 19 13l3 3c11 15 15 30-1 43-15 13-31 8-43-6-8-10-12-22-18-33l-4-3v4c-1 15 7 26 16 37 12 14 27 18 44 11 15-5 21-17 21-34ZM76 329l-1-8-2 8c1 20 11 33 30 38 25 7 30 20 15 41l-5 12c-3 14 1 26 15 32 9 4 17 0 23-8l1-4h-2l-8 6 2-12c2-7-1-10-8-11-2-1-8 3-7-4 1-5 6-7 11-5l6 1-1-7c-13-15-20-36-42-43-16-6-26-18-27-36Zm484 154-2-16-2-10v11c0 29-5 55-36 67-27 9-56-4-75-31-15-21-12-52-39-66-3-2-4-7-6-11a5814 5814 0 0 0 1 17l3 9c13-15 13 3 15 7 9 22 16 45 35 62 22 20 47 26 75 15 23-10 30-30 31-54ZM173 304c-2-30-4-59-25-83l-6-3 2 5c18 43 24 87 14 132l-1 6c2-1 5-2 6-4 8-17 9-35 10-53Zm227-158c0-36-32-79-62-88l-5-1 3 3c33 25 50 58 50 99l1 4 1-5c4-29-6-54-24-76l-3-5 5 3c32 29 37 74 13 109l-1 3 2-2c13-14 19-30 20-44Zm-224 48 3 15 2 4v-4A150 150 0 0 1 296 55h-6c-62 12-113 73-114 139Zm282-6c0-51-47-118-91-134l-5-1 4 3c49 31 82 74 87 134 1 8-1 16-1 23 5-8 5-18 6-25Zm-266-20 1 2 2-3A160 160 0 0 1 311 61l-3-1c-49 0-112 58-116 108Zm-85 29c27 3 14-18 19-28 1-3-2-4-5-4-19-1-28 9-27 27 1 10 10 2 13 5Zm330-30c0-39-43-98-76-108h-3l1 2c24 15 40 38 54 61l3 2-1-3-17-27v-4l3 2c19 22 32 46 30 77l-3 29c7-10 9-22 9-31Zm-147-57v-2l-3 1-66 81-1 3h2c30-22 53-49 68-83ZM35 437c0 26 9 48 29 66l4 2-3-4c-34-34-38-76-11-112l1-2-2 1a75 75 0 0 0 9 123l4 2-3-4a88 88 0 0 1-33-71c0-7 0-15 5-21a17125 17125 0 0 0 0 20Zm441-165c-1-18-2-34-12-47-1-1-1-2-3-2l1 3c13 41 4 79-15 116l-2 4 5-2c21-20 22-48 26-72ZM362 137c0 26-14 44-35 58l-4 3 6-1c22-9 36-24 39-49a91 91 0 0 0-26-72l1 2c10 18 18 37 19 59Zm-15-2c0-19-6-36-15-53l-4-3 1 4c15 42 17 82-19 115l-1 2 2-1c22-16 36-36 36-64Zm-214-30c-11 5-16 16-14 21 2 6 13 12 21 12 3 0 12-13 10-18-1-6-11-10-17-15Zm373 387c9 0 14-4 17-11l-1-2c-17 1-28-9-38-21-2-2-4-2-7-3v1c4 17 9 33 29 36ZM213 182v3l3-4c13-35 32-66 60-91l1-4-4 1c-32 24-52 56-60 95Zm-56 239 3 6 4-3c6-14-11-52-25-56h-9l4 5c7 16 26 25 23 48Zm370 192c-6 0-12 1-15 6a8 8 0 0 0 1 7c4 6 9 4 14 2 16-3 32-8 43-20 5-5 7-11 10-17l-2-1c-9 0-1 9-6 12l-6 6c-12 10-26 6-39 5Zm171-59c-10 7-22 17-39 19l-6 3 7 3c17-1 31-8 43-19l7-7-12 1ZM539 117c-1-12-6-19-15-22-8-3-15-2-19 6-2 2 0 6 0 9 1-3 1-8 3-11 4-5 10-5 16-3 7 2 12 8 13 16s-2 15-8 19l-7 3 4-6c5-5 9-11 5-20-3-5-8-8-15-7l-3 1 3 1c6 1 11 3 13 9s-1 10-5 14c-11 7-20 16-25 29v5l3-4c4-10 9-19 20-20 13-2 14-12 17-19ZM82 285l-2 2c-28 28-27 61 4 85l2 1-1-4c-28-33-29-43-4-80l2-3-1-1Zm307 154a137 137 0 0 0 45 103l-2-2c-27-27-37-61-39-97l-2-15-2 11ZM278 173l3-3a152 152 0 0 0 27-73l-2 2a26161 26161 0 0 0-28 74Zm47-52-1-4-2 3c-6 19-17 37-32 51l-2 2 3-1c18-12 31-28 34-51ZM210 430a90 90 0 0 0-23-56l2 6c4 16 16 29 16 47-1 2 2 5 3 7l2-4Zm223-72h-1c-16 8-18 64-3 74l1 1v-3c-12-23-9-47 3-69v-3Zm-283-73c-3-18-7-37-15-53l-4-3c-1 2-3 4-2 5 11 15 14 34 18 52l2 1 1-2Zm357 287c29-1 51-12 67-34l2-5-4 3a79 79 0 0 1-63 33l-10 1 8 2Zm-44-389 1 7 1-7a134 134 0 0 0-41-92l1 3c20 27 37 55 38 89Zm97 474c21-2 57-48 52-67l-1-1-1 2c-3 31-25 49-49 64l-2 2h1Zm6-335-2 3c-17 32-18 64-5 97l2 4v-4c-12-33-12-65 3-96l2-4Zm44 242 11-24-3-3c-13 0-8 16-17 21l9 6ZM193 323l-3-3-13 3 3 3c11 6-4 13 1 19l-4 2 1 1c3-1 7-2 8-5l7-20Zm-14-18c-2 7 3 9 9 9 5 0 5-5 6-9 0-3-1-8-5-7s-12-3-10 7Zm337 164v-2c-7-10-16-17-29-18l-1 1c9 7 15 18 30 19ZM195 289c-4-4 0-12-7-13-8-1-10 6-9 11 0 2 6 5 10 6 1 1 4-2 6-4Zm310-67-3 4c-2 5-9 7-7 14 3-4 5-8 9-11l21-20-28 11h-1l-4 6v2l5-3 8-3Zm-256-89 3-3a66865 66865 0 0 1 37-44c-15 11-27 25-38 41l-2 6Zm34-26-1-2-3 1-32 41v3l36-43Zm376 237c4 19 13 36 29 48l2 1-1-3c-13-13-23-29-28-46l-2-3v3ZM357 134l-6-26c0-2-2-4-3-5l1 5 4 34-3 19c6-7 6-16 7-27ZM123 544h1l-1-2-42-28-3-1 1 2 44 29ZM54 333v3c-3 21 15 28 25 40l3 3-1-5c-12-11-25-21-26-39l-1-2Zm395-68 4 3c5-1 10-1 10-7 0-4-3-5-6-5-5 0-7 3-8 9ZM85 328v6l8 15-4-13v-13l3-13-7 16v2Zm394-194 2-5c-1-3-4-7-7-8-3-2-5 2-5 6 0 3 1 7 10 7Zm-60 23c-1-7-3-15-6-22l-5-12 3 12 5 24 2 6 1-8Zm-37 4-7-13v30l1 2 6-19Zm-206 74-5 16c5 0 9-4 10-9 0-2-3-5-5-8v1ZM400 50l-4 1 1 2a7277 7277 0 0 0 32 27v-1l-29-29ZM196 262l-12-4-7 4c1 6 7 4 11 5l8-5Zm252 60c-7 0-7 5-8 9l2 3 8-11-2-1Zm-21-164c-2-7-3-15-6-22 0-3-2-5-3-7l1 7 5 23 1 3 2-4Zm-240 53 3 11 2-21-1-3-4 13Zm266 38 10-6-5-5-6 8 1 3Zm67 421 22-5 6-2-6 1-30 5-9 1h17ZM119 141l-1-2-6 15 1 1 6-14Zm202-39-1-3-3 16v2l4-15Zm123 109-3-10v3l1 10 2-3ZM296 88l-4 6 1 1 5-5-2-2Zm317 497 1 9 2-11-1-3-2 5Zm122-112 1 6 1-6-1-5-1 5Zm-537-1-6 7 2 1 4-7v-1Zm-36-253-3-2-3 2 2 2 4-2Zm39-25 2-8v-2l-2 5v5ZM305 42l3-1h-2l-5 1h4Z"/><path fill="#000" d="M275 250h14c6 1 11 3 14 9 1 1 4 6-2 3l-9-5-4-2c-13-2-26-4-38 3-1 1-4 4 1 4l27 1 13 1c7 0 13 3 15 10l-10 4c-3 1-2 3-2 6 2 8-7 9-13 9-10 1-26-5-27-5-16 13-15-7-22-10-3-1-3-7-4-12l8-1 11-3c-2 0-3-2-4-1l-6 2-5-1 4-3c13-7 26-11 39-9Zm-3 34 13-3c2 0 5-3 5-4l-5-7-5 4c-10 11-19 8-28-1l-4-2-6 2 4 4c6 5 13 7 26 7ZM334 410l-22-6-12-7 11 4h2l-2-7a6 6 0 0 0-4-2c-6-1-15 4-15-4-1-9 8 0 12-3 24-13 48-7 72-2l2 4a52 52 0 0 1-44 23Zm26-8v-2l8-8-5-2c-4 0-5 2-3 12ZM370 286l-1-3h4c13 3 26 6 38-4l2-4-4 1c-13 6-25 11-36-4 0 10-9 0-11 6 0 1 3 5-2 4-1-1-2-6-1-8 9-22 29-23 49-20 4 0 11 1 13 4 15 24-5 26-21 35-15 8-21-1-30-7l11 5c1 1 3-1 4-1l-15-4Zm29-30c-11 0-20 3-29 8l-1 2h1l29-2c5-1 15 3 15-3 0-7-10-3-15-5ZM315 230c0 7-3 9-9 8-29-7-59-11-88 2-1 1-3 0-5-1l2-6c18-14 77-19 96-8l4 5ZM432 234c1 3-1 5-4 4-15-4-31-1-46 2-4 1-8 2-10-4-1-5 1-9 6-10 15-4 30-5 45-2 5 2 9 4 9 10Z"/><path fill="#000" d="m401 240-4 2c-42 14-52 37-32 78 7 15 7 27-9 34h-5l2-4c17-8 12-19 6-30a66 66 0 0 1-2-60c8-17 24-20 40-20h4ZM340 411c4 2 10-2 10 5 0 2-5 6-5 6-10-7-25 10-29-3-3-7 16-5 24-8ZM322 354c-8 0-13-3-15-10-1-5-1-9 4-12l2 8c3 5 4 15 14 5 2-2 6-2 9-2 1 0 7 2 4 6-1 1-6-2-8-1l-10 6ZM336 366c1-7 1-13 7-14l2 1-4 20-5-7ZM273 580c-4 2-7 5-8 4l-76-22c-5-2-13-5-9-12 4-8 8 2 12 3l67 18c4 1 8 5 14 9ZM383 555c-9 12-21 13-33 16l-18 5c-3 1-6 6-9 2-2-4 1-7 4-9 15-10 36-5 51-18l5 4Z"/></svg>